<svg width="512" height="512" viewBox="0 0 512 512" fill="none" xmlns="http://www.w3.org/2000/svg">
<rect width="512" height="512" rx="256" fill="black"/>
<path d="M350.222 258.667C364.698 258.667 376.444 270.413 376.444 284.889V334C376.444 349.361 363.982 362.192 346.861 363.604L344.778 363.778C327.203 363.778 313.111 349.686 313.111 332.111V284.889C313.111 270.413 324.857 258.667 339.333 258.667H350.222ZM339.333 275.556C334.286 275.556 330.222 279.619 330.222 284.667V332.111C330.222 341.006 337.328 348.113 346.155 348.222L348.042 348.158C356.476 347.758 363.333 340.617 363.333 332V284.667C363.333 279.619 359.27 275.556 354.222 275.556H339.333Z" fill="white"/>
<path d="M367.111 291.778C371.808 291.778 375.667 295.636 376.388 300.333L376.444 301.333C376.444 306.03 372.586 309.889 367.889 310.61L366.889 310.667H322.111C317.414 310.667 313.556 306.808 312.834 302.111L312.778 301.111C312.778 296.414 316.636 292.556 321.333 291.834L322.333 291.778H367.111Z" fill="white"/>
<path d="M183.556 258.667C198.032 258.667 209.778 270.413 209.778 284.889V334C209.778 349.361 197.316 362.192 180.195 363.604L178.111 363.778C160.537 363.778 146.444 349.686 146.444 332.111V284.889C146.444 270.413 158.191 258.667 172.667 258.667H183.556ZM172.667 275.556C167.619 275.556 163.556 279.619 163.556 284.667V332.111C163.556 341.006 170.662 348.113 179.489 348.222L181.376 348.158C189.81 347.758 196.667 340.617 196.667 332V284.667C196.667 279.619 192.603 275.556 187.556 275.556H172.667Z" fill="white"/>
<path d="M200.444 291.778C205.141 291.778 209 295.636 209.721 300.333L209.778 301.333C209.778 306.03 205.919 309.889 201.222 310.61L200.222 310.667H155.444C150.748 310.667 146.889 306.808 146.168 302.111L146.111 301.111C146.111 296.414 149.97 292.556 154.667 291.834L155.667 291.778H200.444Z" fill="white"/>
<path d="M283.556 147.333C302.084 147.333 319.639 154.899 332.542 167.802C345.445 180.705 353.011 198.26 353.011 216.788V267.111C353.011 271.808 349.153 275.667 344.456 276.388L343.456 276.444C338.759 276.444 334.9 272.586 334.179 267.889L334.123 266.889V216.788C334.123 203.002 328.604 189.804 318.758 179.958C309.532 170.732 297.321 165.535 284.456 164.756L281.848 164.689L284.167 166.782C299.123 180.628 307.576 200.242 308.512 221.227L308.678 224.563L308.733 226.9C308.733 253.161 287.595 274.3 261.333 274.3C235.072 274.3 213.933 253.161 213.933 226.9C213.933 206.1 223.067 187.379 237.5 176.404L239.389 174.689L235.756 174.878C209.231 176.284 187.508 197.953 186.101 224.478L185.956 226.901V267.111C185.956 271.808 182.097 275.667 177.4 276.388L176.4 276.444C171.703 276.444 167.845 272.586 167.123 267.889L167.067 266.889V226.9C167.067 187.203 200.537 154.756 240.234 147.614L244.522 147.02L249.278 146.689L254.789 146.584L261.212 146.756L267.967 147.445C273.174 148.023 278.234 149.141 283.067 150.728L289.389 152.863L290.878 153.406L293.356 154.303L261.333 169.139C241.26 177.744 228.044 198.173 228.044 221.111C228.044 233.432 237.012 243.333 249.333 243.333C261.655 243.333 270.622 233.432 270.622 221.111C270.622 198.173 257.407 177.744 237.333 169.139L234.656 168.019L231.767 166.989L228.789 166.076L261.322 150.971L262.844 150.406C268.454 148.519 274.402 147.401 280.6 147.169L283.556 147.333Z" fill="white"/>
</svg>
