<svg width="24" height="24" viewBox="0 0 24 24" fill="none" xmlns="http://www.w3.org/2000/svg">
<path d="M15.2002 6.25C18.7244 6.2501 20.75 8.94355 20.75 13C20.75 17.8301 16.8325 21.748 12 21.748C7.16864 21.748 3.2516 17.8316 3.25 13C3.25009 9.03291 5.18656 6.37029 8.56738 6.25391L8.7998 6.25L8.86719 6.25293C9.7565 6.33257 10.6409 6.46112 11.5156 6.63867L11.998 6.74414L12.376 6.66113C13.1053 6.50978 13.8463 6.39244 14.6162 6.30762L15.2002 6.25ZM15.2666 7.74707C14.2242 7.84042 13.1894 8.00564 12.1699 8.24219C12.0584 8.26807 11.9416 8.26807 11.8301 8.24219C11.0144 8.05294 10.1887 7.90927 9.35742 7.81152L8.76074 7.75L8.58691 7.75488C6.20181 7.85644 4.82941 9.67667 4.75293 12.7275L4.75 13C4.75132 17.0031 7.99688 20.248 12 20.248C15.9239 20.248 19.1196 17.1304 19.2461 13.2373L19.25 12.998L19.2471 12.7275C19.1684 9.58746 17.7176 7.74998 15.2666 7.74707Z" fill="white"/>
<path d="M17.249 1.25C17.6632 1.25005 17.999 1.58582 17.999 2V3.84277C17.998 6.00045 16.2488 7.74932 14.0908 7.75H12.249C11.8348 7.75 11.499 7.41421 11.499 7V5.1582C11.4983 3.0005 13.2473 1.25074 15.4052 1.25H17.249ZM15.4052 2.75C14.0759 2.75046 12.9985 3.8286 12.999 5.1582L12.998 6.25H14.0908C15.3674 6.24953 16.4122 5.25575 16.4941 4L16.499 3.8418L16.498 2.74902L15.4052 2.75Z" fill="white"/>
<path d="M9.749 3.25C11.482 3.25 12.8982 4.60646 12.9939 6.31558L12.999 6.5V7C12.999 7.41421 12.6632 7.75 12.249 7.75C11.8693 7.75 11.5555 7.46785 11.5058 7.10177L11.499 7V6.5C11.499 5.58183 10.7919 4.82881 9.89253 4.7558L9.749 4.75H9.249C8.83479 4.75 8.499 4.41421 8.499 4C8.499 3.6203 8.78115 3.30651 9.14723 3.25685L9.249 3.25H9.749Z" fill="white"/>
</svg>
