<svg width="24" height="24" viewBox="0 0 24 24" fill="none" xmlns="http://www.w3.org/2000/svg">
<path d="M19.4714 3.41429C19.7653 3.12238 20.2402 3.12397 20.5321 3.41784C23.1233 6.02646 21.2024 11.8279 16.5451 16.5167C11.8856 21.2076 6.11555 23.1439 3.51973 20.5306C3.22783 20.2368 3.22942 19.7619 3.5233 19.47C3.81717 19.1781 4.29204 19.1797 4.58395 19.4735C6.39211 21.2939 11.3325 19.636 15.4809 15.4596C19.6315 11.281 21.2807 6.29995 19.4679 4.47494C19.176 4.18107 19.1776 3.7062 19.4714 3.41429Z" fill="white"/>
<path d="M7.60593 7.95398C9.46442 7.93194 11.2521 8.66578 12.5591 9.98722C12.8504 10.2817 12.8478 10.7566 12.5533 11.0479C12.2588 11.3391 11.784 11.3365 11.4927 11.042C10.4718 10.0099 9.07538 9.43666 7.63542 9.45364C6.48287 9.48531 5.55967 10.419 5.54107 11.5658L5.54636 11.8567L5.56999 12.174L5.79541 12.2073C6.82475 12.3799 7.79883 12.8046 8.62865 13.4472L8.85132 13.6278C9.16703 13.8959 9.20558 14.3692 8.93744 14.6849C8.66929 15.0007 8.19599 15.0392 7.88028 14.7711C7.04452 14.0612 5.99247 13.6562 4.89646 13.6224C4.54945 13.6117 4.25514 13.3642 4.18503 13.0242C4.08528 12.5404 4.03704 12.0474 4.04119 11.5475C4.07287 9.59183 5.63901 8.00793 7.60593 7.95398Z" fill="white"/>
<path d="M2.69234 14.0292C3.09471 12.7974 4.31065 12.0208 5.60914 12.1753C6.80791 12.3369 7.93509 12.8393 8.85678 13.6226C9.1724 13.8909 9.2108 14.3642 8.94255 14.6798C8.6743 14.9954 8.20098 15.0338 7.88536 14.7656C7.18248 14.1682 6.32289 13.7851 5.42036 13.6633C4.84357 13.5947 4.29855 13.9428 4.11916 14.492C3.41223 16.6869 3.59501 18.4779 4.58395 19.4735C4.87586 19.7674 4.87426 20.2423 4.58038 20.5342C4.28651 20.8261 3.81164 20.8245 3.51973 20.5306C2.07073 19.0718 1.82951 16.7082 2.69234 14.0292Z" fill="white"/>
<path d="M10.9852 4.67236L11.2056 4.67444C12.9461 4.73933 14.5966 5.46474 15.8213 6.70314C16.1125 6.99765 16.1099 7.47252 15.8154 7.76378C15.5208 8.05504 15.046 8.0524 14.7547 7.75789C13.7982 6.79065 12.5091 6.22408 11.1485 6.17336C10.5287 6.14925 9.92627 6.38171 9.48327 6.81597C9.17317 7.11995 8.96038 7.504 8.8646 7.91814L8.83799 8.05501L8.99244 8.08262C10.2427 8.32431 11.4053 8.91075 12.3456 9.78087L12.5591 9.98722C12.8504 10.2817 12.8478 10.7566 12.5533 11.0479C12.2588 11.3391 11.784 11.3365 11.4927 11.042C10.568 10.1091 9.33306 9.54929 8.02199 9.46827C7.64459 9.44495 7.34357 9.14434 7.31974 8.76697L7.30788 8.49653C7.2883 7.4635 7.69539 6.46808 8.43323 5.7448C9.11836 5.07318 10.0324 4.69137 10.9852 4.67236Z" fill="white"/>
<path d="M10.3013 4.87911C13.8649 1.84156 18.2366 1.10795 20.5321 3.41784C20.8241 3.71165 20.8225 4.18637 20.5287 4.47834C20.2349 4.77032 19.7599 4.76875 19.4679 4.47494C17.8412 2.83806 14.3133 3.43033 11.2743 6.02069C10.9591 6.28939 10.4857 6.25166 10.217 5.93642C9.94829 5.62118 9.98601 5.14781 10.3013 4.87911Z" fill="white"/>
</svg>
