<svg width="24" height="24" viewBox="0 0 24 24" fill="currentColor" xmlns="http://www.w3.org/2000/svg">
<path d="M15.6963 3.25C19.1105 3.25017 21.7499 6.35161 21.75 9.75488C21.75 12.6025 20.1935 15.3233 17.6699 17.6084C15.6843 19.4064 13.2297 20.75 12 20.75C10.7703 20.75 8.31567 19.4064 6.33008 17.6084C3.80654 15.3233 2.25 12.6025 2.25 9.75488C2.25006 6.35161 4.88952 3.25017 8.30371 3.25C9.70609 3.25 10.8835 3.71302 11.8232 4.4873L12 4.63867L12.1768 4.4873C13.0494 3.76833 14.1272 3.31754 15.3994 3.25684L15.6963 3.25ZM15.6963 4.75C14.3684 4.75 13.3363 5.30232 12.5703 6.19824C12.2709 6.54846 11.7291 6.54846 11.4297 6.19824C10.6637 5.30232 9.63158 4.75 8.30371 4.75C5.77641 4.75018 3.75006 7.13121 3.75 9.75488C3.75 12.1126 5.09845 14.4701 7.33691 16.4971C9.07162 18.0678 11.2322 19.25 12 19.25C12.7678 19.25 14.9284 18.0678 16.6631 16.4971C18.9016 14.4701 20.25 12.1126 20.25 9.75488C20.2499 7.13121 18.2236 4.75018 15.6963 4.75Z" fill="currentColor"/>
<path d="M14.3587 9.52567C14.6516 9.23278 15.1264 9.23278 15.4193 9.52567C15.6856 9.79194 15.7098 10.2086 15.4919 10.5022L15.4193 10.5863L11.8083 14.1973C11.5421 14.4636 11.1254 14.4878 10.8318 14.2699L10.7477 14.1973L8.58067 12.0303C8.28778 11.7374 8.28778 11.2626 8.58067 10.9697C8.84694 10.7034 9.2636 10.6792 9.55721 10.8971L9.64133 10.9697L11.278 12.606L14.3587 9.52567Z" fill="currentColor"/>
</svg>
