<svg width="24" height="24" viewBox="0 0 24 24" fill="none" xmlns="http://www.w3.org/2000/svg">
<path d="M12 11.25C13.2426 11.25 14.25 12.2574 14.25 13.5C14.25 14.7426 13.2426 15.75 12 15.75C10.7574 15.75 9.75 14.7426 9.75 13.5C9.75 12.2574 10.7574 11.25 12 11.25ZM12 12.75C11.5858 12.75 11.25 13.0858 11.25 13.5C11.25 13.9142 11.5858 14.25 12 14.25C12.4142 14.25 12.75 13.9142 12.75 13.5C12.75 13.0858 12.4142 12.75 12 12.75Z" fill="white"/>
<path d="M14.7307 9.87179C15.0236 9.5789 15.4985 9.5789 15.7913 9.87179C16.0576 10.1381 16.0818 10.5547 15.864 10.8483L15.7913 10.9324L13.6686 13.0552C13.3757 13.3481 12.9008 13.3481 12.6079 13.0552C12.3416 12.789 12.3174 12.3723 12.5353 12.0787L12.6079 11.9946L14.7307 9.87179Z" fill="white"/>
<path d="M12 5.25C16.5563 5.25 20.25 8.94365 20.25 13.5C20.25 18.0563 16.5563 21.75 12 21.75C7.44365 21.75 3.75 18.0563 3.75 13.5C3.75 8.94365 7.44365 5.25 12 5.25ZM12 6.75C8.27208 6.75 5.25 9.77208 5.25 13.5C5.25 17.2279 8.27208 20.25 12 20.25C15.7279 20.25 18.75 17.2279 18.75 13.5C18.75 9.77208 15.7279 6.75 12 6.75Z" fill="white"/>
<path d="M12 2.25C12.3797 2.25 12.6935 2.53215 12.7432 2.89823L12.75 3V6C12.75 6.41421 12.4142 6.75 12 6.75C11.6203 6.75 11.3065 6.46785 11.2568 6.10177L11.25 6V3C11.25 2.58579 11.5858 2.25 12 2.25Z" fill="white"/>
<path d="M13.75 2.25C14.1642 2.25 14.5 2.58579 14.5 3C14.5 3.3797 14.2178 3.69349 13.8518 3.74315L13.75 3.75H10.25C9.83579 3.75 9.5 3.41421 9.5 3C9.5 2.6203 9.78215 2.30651 10.1482 2.25685L10.25 2.25H13.75Z" fill="white"/>
<path d="M18.2111 6.27851C18.504 5.98562 18.9789 5.98562 19.2718 6.27851C19.5381 6.54478 19.5623 6.96144 19.3444 7.25505L19.2718 7.33917L17.857 8.7539C17.5642 9.04679 17.0893 9.04679 16.7964 8.7539C16.5301 8.48763 16.5059 8.07097 16.7238 7.77736L16.7964 7.69324L18.2111 6.27851Z" fill="white"/>
<path d="M4.72821 6.27851C4.99447 6.01224 5.41114 5.98804 5.70475 6.20589L5.78887 6.27851L7.20361 7.69324C7.4965 7.98613 7.4965 8.461 7.20361 8.7539C6.93735 9.02016 6.52068 9.04437 6.22707 8.82652L6.14295 8.7539L4.72821 7.33917C4.43532 7.04628 4.43532 6.57141 4.72821 6.27851Z" fill="white"/>
</svg>
