<svg width="24" height="24" viewBox="0 0 24 24" fill="none" xmlns="http://www.w3.org/2000/svg">
<path d="M15.4238 3.01988C15.689 2.70167 16.1619 2.65868 16.4801 2.92385C16.7694 3.16492 16.8312 3.57768 16.6409 3.88981L16.5762 3.98016L11.5762 9.98016C11.311 10.2984 10.8381 10.3414 10.5199 10.0762C10.2306 9.83512 10.1688 9.42236 10.3591 9.11023L10.4238 9.01988L15.4238 3.01988Z" fill="white"/>
<path d="M19.5315 4.91437C19.8549 4.65561 20.3269 4.70805 20.5857 5.0315C20.8209 5.32554 20.7989 5.74233 20.55 6.01009L20.4685 6.08567L15.4685 10.0857C15.1451 10.3444 14.6731 10.292 14.4143 9.96854C14.1791 9.6745 14.2011 9.25771 14.45 8.98995L14.5315 8.91437L19.5315 4.91437Z" fill="white"/>
<path d="M19 12.25C20.4425 12.25 21.637 13.3643 21.7441 14.8233L21.75 15C21.75 16.4604 21.2765 17.8815 20.4004 19.0498C19.1256 20.7495 17.1246 21.75 15 21.75H9C6.97553 21.75 5.05951 20.8411 3.76855 19.2647L3.59961 19.0498C2.7871 17.9663 2.32001 16.6639 2.25684 15.2949L2.25 15C2.25 13.4812 3.48122 12.25 5 12.25H19ZM5 13.75C4.30972 13.75 3.75033 14.3095 3.75 14.9824L3.75586 15.2432C3.80458 16.2944 4.16778 17.3077 4.79004 18.1377L4.93848 18.3272C5.93468 19.5435 7.42543 20.25 9 20.25H15C16.6524 20.25 18.2087 19.4723 19.2002 18.1504C19.8818 17.2417 20.2505 16.1358 20.251 15.0274L20.2461 14.9063C20.1982 14.2571 19.6555 13.75 19 13.75H5Z" fill="white"/>
</svg>
