<svg width="24" height="24" viewBox="0 0 24 24" fill="none" xmlns="http://www.w3.org/2000/svg">
<path d="M7.5 5.25C10.4866 5.25 12.75 8.77086 12.75 13C12.75 13.4142 12.4142 13.75 12 13.75C11.5858 13.75 11.25 13.4142 11.25 13C11.25 9.49715 9.48397 6.75 7.5 6.75C5.51603 6.75 3.75 9.49715 3.75 13C3.75 13.4142 3.41421 13.75 3 13.75C2.58579 13.75 2.25 13.4142 2.25 13C2.25 8.77086 4.51341 5.25 7.5 5.25Z" fill="white"/>
<path d="M16.5 5.5C19.4788 5.5 21.75 8.9068 21.75 13C21.75 13.4142 21.4142 13.75 21 13.75C20.5858 13.75 20.25 13.4142 20.25 13C20.25 9.63736 18.4918 7 16.5 7C14.5082 7 12.75 9.63736 12.75 13C12.75 13.4142 12.4142 13.75 12 13.75C11.5858 13.75 11.25 13.4142 11.25 13C11.25 8.9068 13.5212 5.5 16.5 5.5Z" fill="white"/>
<path d="M21 12.25C21.9665 12.25 22.75 13.0335 22.75 14V15C22.75 15.9665 21.9665 16.75 21 16.75H3C2.0335 16.75 1.25 15.9665 1.25 15V14C1.25 13.0335 2.0335 12.25 3 12.25H21ZM3 13.75C2.86193 13.75 2.75 13.8619 2.75 14V15C2.75 15.1381 2.86193 15.25 3 15.25H21C21.1381 15.25 21.25 15.1381 21.25 15V14C21.25 13.8619 21.1381 13.75 21 13.75H3Z" fill="white"/>
<path d="M3 15.25C3.3797 15.25 3.69349 15.5322 3.74315 15.8982L3.75 16V16.182C3.75 17.3055 3.95409 18.4196 4.34919 19.4618C4.52137 19.9004 4.92486 20.2002 5.3908 20.2444L5.5193 20.25H8.86383C9.3415 20.25 9.77327 19.9784 9.98287 19.5573L10.0344 19.4388L10.2978 18.7366C10.4432 18.3488 10.8755 18.1523 11.2634 18.2978C11.6189 18.4311 11.8136 18.8055 11.7316 19.1657L11.7022 19.2634L11.4389 19.9656C11.0587 20.9793 10.1223 21.6699 9.05369 21.7435L8.86383 21.75L5.52446 21.75C4.38984 21.7578 3.36757 21.0661 2.94977 20.0017C2.53851 18.917 2.30547 17.7739 2.25877 16.6166L2.25 16.182V16C2.25 15.5858 2.58579 15.25 3 15.25Z" fill="white"/>
<path d="M21 15.25C21.3797 15.25 21.6935 15.5322 21.7432 15.8982L21.75 16V16.182C21.75 17.4871 21.5129 18.7813 21.0471 20.0098C20.6556 21.0073 19.722 21.6798 18.6679 21.7449L18.4807 21.75H15.136C14.0533 21.75 13.078 21.1157 12.6339 20.141L12.5611 19.9656L12.2978 19.2634C12.1523 18.8755 12.3488 18.4432 12.7366 18.2978C13.0922 18.1644 13.485 18.3184 13.6601 18.6438L13.7022 18.7366L13.9656 19.4389C14.1333 19.8861 14.5392 20.195 15.007 20.2434L15.136 20.25L18.4859 20.2501C18.9999 20.2536 19.463 19.9402 19.6477 19.4699C20.0017 18.5361 20.2023 17.5522 20.2425 16.556L20.25 16.182V16C20.25 15.5858 20.5858 15.25 21 15.25Z" fill="white"/>
<path d="M13 18.25C13.4142 18.25 13.75 18.5858 13.75 19C13.75 19.3797 13.4678 19.6935 13.1018 19.7432L13 19.75H11C10.5858 19.75 10.25 19.4142 10.25 19C10.25 18.6203 10.5322 18.3065 10.8982 18.2568L11 18.25H13Z" fill="white"/>
</svg>
