<svg width="24" height="24" viewBox="0 0 24 24" fill="none" xmlns="http://www.w3.org/2000/svg">
<path d="M14 1.25C14.4142 1.25 14.75 1.58579 14.75 2C14.75 2.3797 14.4678 2.69349 14.1018 2.74315L14 2.75H10C9.58579 2.75 9.25 2.41421 9.25 2C9.25 1.6203 9.53215 1.30651 9.89823 1.25685L10 1.25H14Z" fill="white"/>
<path d="M8.46967 9.46967C8.73594 9.2034 9.1526 9.1792 9.44621 9.39705L9.53033 9.46967L12.5303 12.4697C12.8232 12.7626 12.8232 13.2374 12.5303 13.5303C12.2641 13.7966 11.8474 13.8208 11.5538 13.6029L11.4697 13.5303L8.46967 10.5303C8.17678 10.2374 8.17678 9.76256 8.46967 9.46967Z" fill="white"/>
<path d="M19.4697 4.46967C19.7626 4.17678 20.2374 4.17678 20.5303 4.46967C20.7966 4.73594 20.8208 5.1526 20.6029 5.44621L20.5303 5.53033L18.1903 7.87033C17.8974 8.16322 17.4226 8.16322 17.1297 7.87033C16.8634 7.60406 16.8392 7.1874 17.0571 6.89379L17.1297 6.80967L19.4697 4.46967Z" fill="white"/>
<path d="M18.4697 3.46967C18.7359 3.2034 19.1526 3.1792 19.4462 3.39705L19.5303 3.46967L21.5303 5.46967C21.8232 5.76256 21.8232 6.23744 21.5303 6.53033C21.2641 6.7966 20.8474 6.8208 20.5538 6.60295L20.4697 6.53033L18.4697 4.53033C18.1768 4.23744 18.1768 3.76256 18.4697 3.46967Z" fill="white"/>
<path d="M8 14.25C8.41421 14.25 8.75 14.5858 8.75 15C8.75 15.3797 8.46785 15.6935 8.10177 15.7432L8 15.75H3C2.58579 15.75 2.25 15.4142 2.25 15C2.25 14.6203 2.53215 14.3065 2.89823 14.2568L3 14.25H8Z" fill="white"/>
<path d="M8 17.25C8.41421 17.25 8.75 17.5858 8.75 18C8.75 18.3797 8.46785 18.6935 8.10177 18.7432L8 18.75H5C4.58579 18.75 4.25 18.4142 4.25 18C4.25 17.6203 4.53215 17.3065 4.89823 17.2568L5 17.25H8Z" fill="white"/>
<path d="M8 20.25C8.41421 20.25 8.75 20.5858 8.75 21C8.75 21.3797 8.46785 21.6935 8.10177 21.7432L8 21.75H7C6.58579 21.75 6.25 21.4142 6.25 21C6.25 20.6203 6.53215 20.3065 6.89823 20.2568L7 20.25H8Z" fill="white"/>
<path d="M12 4.25C16.8322 4.25 20.75 8.16779 20.75 13C20.75 17.8322 16.8322 21.75 12 21.75C11.5858 21.75 11.25 21.4142 11.25 21C11.25 20.5858 11.5858 20.25 12 20.25C16.0038 20.25 19.25 17.0038 19.25 13C19.25 8.99621 16.0038 5.75 12 5.75C8.67858 5.75 5.81283 8.00879 4.9943 11.1871C4.89099 11.5882 4.48207 11.8296 4.08095 11.7263C3.67982 11.623 3.43839 11.2141 3.5417 10.8129C4.52967 6.97678 7.98916 4.25 12 4.25Z" fill="white"/>
</svg>
