<svg width="24" height="24" viewBox="0 0 24 24" fill="none" xmlns="http://www.w3.org/2000/svg">
<path d="M12.2451 1.25574C14.9395 1.38447 17.0676 3.61016 17.0674 6.29675L17.0732 6.53699C17.1202 7.42002 17.4374 8.26824 17.9912 8.97839L18.1904 9.24402C19.2016 10.6566 19.7473 12.3507 19.75 14.1083L19.7432 14.3602C19.5759 18.5021 16.1514 21.7767 11.9922 21.7499L11.7402 21.7469C7.59643 21.6338 4.27724 18.2522 4.25 14.0741L4.25781 13.7421C4.33296 12.0065 4.9476 10.3363 6.00586 8.98132L6.14941 8.78894C6.657 8.06478 6.93061 7.20131 6.93262 6.29968L6.9375 6.07312C7.06605 3.37845 9.2925 1.24988 12 1.24988L12.2451 1.25574ZM12 2.74988C10.0942 2.74988 8.52653 4.24808 8.43652 6.12585L8.4248 6.59363C8.3708 7.68931 8.00765 8.75014 7.36621 9.66492L7.01758 10.1337C6.25233 11.2092 5.81356 12.4843 5.75684 13.7919L5.75 14.0858C5.77207 17.4328 8.4451 20.1571 11.7686 20.2479L12.0049 20.2499C15.3519 20.2714 18.1099 17.6342 18.2441 14.3124L18.25 14.0927C18.2477 12.6663 17.7998 11.2759 16.9795 10.1298L16.6357 9.66882C16.0025 8.77296 15.6344 7.71327 15.5752 6.59753L15.5625 6.12781C15.4669 4.30872 14.0065 2.84168 12.1914 2.75476L12 2.74988Z" fill="white"/>
<path d="M11.9998 9.93213C14.0849 9.93213 15.7498 11.7358 15.7498 13.9321C15.7498 16.1285 14.0849 17.9321 11.9998 17.9321C9.91474 17.9321 8.24981 16.1285 8.24981 13.9321C8.24981 11.7358 9.91474 9.93213 11.9998 9.93213ZM11.9998 11.4321C10.7712 11.4321 9.74981 12.5386 9.74981 13.9321C9.74981 15.3257 10.7712 16.4321 11.9998 16.4321C13.2284 16.4321 14.2498 15.3257 14.2498 13.9321C14.2498 12.5386 13.2284 11.4321 11.9998 11.4321Z" fill="white"/>
</svg>
