<svg width="24" height="24" viewBox="0 0 24 24" fill="none" xmlns="http://www.w3.org/2000/svg">
<path d="M7 2.25C12.3848 2.25 16.75 6.61523 16.75 12V15.3418C16.75 16.1194 16.1194 16.75 15.3418 16.75H12C6.61523 16.75 2.25 12.3848 2.25 7V4.85742C2.25 3.41754 3.41754 2.25 4.85742 2.25H7ZM4.85742 3.75C4.24597 3.75 3.75 4.24597 3.75 4.85742V7C3.75 11.5563 7.44365 15.25 12 15.25L15.249 15.249L15.25 12C15.25 7.52803 11.6916 3.88722 7.25195 3.75391L7 3.75H4.85742Z" fill="white"/>
<path d="M6.03682 5.39097L6.13414 5.38429L6.244 5.391C6.61347 5.43894 6.90173 5.7302 6.94546 6.0932L6.9512 6.19385C6.9512 6.63969 6.59072 7.00163 6.14487 7.00342C5.69775 7.00522 5.33383 6.64422 5.33203 6.1971C5.33036 5.78437 5.63784 5.44254 6.03682 5.39097Z" fill="white"/>
<path d="M9.5 5.743C9.91421 5.743 10.25 6.07879 10.25 6.493C10.25 8.56406 8.57106 10.243 6.5 10.243C6.08579 10.243 5.75 9.90721 5.75 9.493C5.75 9.1133 6.03215 8.79951 6.39823 8.74985L6.5 8.743C7.69086 8.743 8.66565 7.81783 8.74481 6.64705L8.75 6.493C8.75 6.07879 9.08579 5.743 9.5 5.743Z" fill="white"/>
<path d="M15.3713 3.977C15.9988 3.977 16.6006 4.22629 17.0444 4.67003C17.9264 5.55206 17.9665 6.9572 17.1647 7.8868L17.0444 8.01626L15.8794 9.1812C15.5865 9.4741 15.1117 9.4741 14.8188 9.1812C14.5525 8.91494 14.5283 8.49827 14.7462 8.20466L14.8188 8.12054L15.9837 6.95561C16.322 6.61735 16.322 6.06894 15.9837 5.73069C15.8483 5.59533 15.6728 5.5094 15.4851 5.48451L15.3713 5.477H12.2859C11.8717 5.477 11.5359 5.14121 11.5359 4.727C11.5359 4.3473 11.8181 4.03351 12.1841 3.98385L12.2859 3.977H15.3713Z" fill="white"/>
<path d="M4.727 11.5359C5.1067 11.5359 5.42049 11.8181 5.47015 12.1841L5.477 12.2859V15.3713C5.477 15.601 5.56826 15.8213 5.73069 15.9837C6.04075 16.2938 6.5274 16.3196 6.8669 16.0612L6.95559 15.9837L8.12054 14.8188C8.41343 14.5259 8.8883 14.5259 9.1812 14.8188C9.44746 15.085 9.47167 15.5017 9.25381 15.7953L9.1812 15.8794L8.01625 17.0444C7.0922 17.9684 5.59405 17.9684 4.67002 17.0444C4.27066 16.645 4.0288 16.1176 3.98442 15.5586L3.977 15.3713V12.2859C3.977 11.8717 4.31279 11.5359 4.727 11.5359Z" fill="white"/>
<path d="M17.262 14.291C19.2106 14.012 21.0865 15.1679 21.7112 17.042C21.8038 17.32 21.7259 17.626 21.512 17.8262L21.3411 17.9864C20.6757 18.5692 19.8334 18.9086 18.9524 18.9532L18.9319 19.2168C18.8373 20.0143 18.4995 20.7662 17.9622 21.3682L17.8089 21.5303C17.6029 21.7361 17.2965 21.8046 17.0228 21.7051L16.8284 21.6338C14.998 20.9093 13.9422 18.9748 14.3353 17.0117L14.386 16.7998C14.7311 15.5435 15.7568 14.5864 17.0384 14.3301L17.262 14.291ZM19.9886 16.9014C19.4484 16.0891 18.4798 15.6319 17.4954 15.7725L17.3274 15.8008L17.179 15.8379C16.5767 16.0097 16.0934 16.4593 15.8851 17.0274L15.8392 17.1719L15.8001 17.3321C15.5885 18.3902 16.0584 19.447 16.9231 20.0059L17.0569 20.0869L17.1028 20.0205C17.301 19.6965 17.4211 19.3284 17.4515 18.9463L17.4593 18.7539V18.209C17.4594 17.7949 17.7951 17.459 18.2093 17.459H18.7542C19.2119 17.459 19.657 17.3295 20.0315 17.0977L20.0862 17.0596L19.9886 16.9014Z" fill="white"/>
</svg>
