<svg width="19" height="18" viewBox="0 0 19 18" fill="currentColor" xmlns="http://www.w3.org/2000/svg">
<g id="Sport, Fitness/fitness-jumping-rope-2">
<g id="Group">
<path id="Path" d="M15.5 9.1875C16.432 9.1875 17.1875 9.94302 17.1875 10.875V14.25C17.1875 15.3318 16.3519 16.2272 15.2578 16.3076L15.125 16.3125C13.9859 16.3125 13.0625 15.3891 13.0625 14.25V10.875C13.0625 9.94302 13.818 9.1875 14.75 9.1875H15.5ZM14.75 10.3125C14.4393 10.3125 14.1875 10.5643 14.1875 10.875V14.25C14.1875 14.7678 14.6074 15.1871 15.1045 15.1875L15.1953 15.1846C15.6822 15.1486 16.0625 14.7416 16.0625 14.25V10.875C16.0625 10.5643 15.8107 10.3125 15.5 10.3125H14.75Z" fill="currentColor"/>
<path id="Path_2" d="M16.625 11.4375C16.9357 11.4375 17.1875 11.6893 17.1875 12C17.1875 12.3107 16.9357 12.5625 16.625 12.5625H13.625C13.3143 12.5625 13.0625 12.3107 13.0625 12C13.0625 11.6893 13.3143 11.4375 13.625 11.4375H16.625Z" fill="currentColor"/>
<path id="Path_3" d="M4.25 9.1875C5.18198 9.1875 5.9375 9.94302 5.9375 10.875V14.25C5.9375 15.3318 5.10188 16.2272 4.00781 16.3076L3.875 16.3125C2.73591 16.3125 1.8125 15.3891 1.8125 14.25V10.875C1.8125 9.94302 2.56802 9.1875 3.5 9.1875H4.25ZM3.5 10.3125C3.18934 10.3125 2.9375 10.5643 2.9375 10.875V14.25C2.9375 14.7678 3.35738 15.1871 3.85449 15.1875L3.94531 15.1846C4.4322 15.1486 4.8125 14.7416 4.8125 14.25V10.875C4.8125 10.5643 4.56066 10.3125 4.25 10.3125H3.5Z" fill="currentColor"/>
<path id="Path_4" d="M5.375 11.4375C5.68566 11.4375 5.9375 11.6893 5.9375 12C5.9375 12.3107 5.68566 12.5625 5.375 12.5625H2.375C2.06434 12.5625 1.8125 12.3107 1.8125 12C1.8125 11.6893 2.06434 11.4375 2.375 11.4375H5.375Z" fill="currentColor"/>
<path id="Path_5" d="M11 1.6875C12.2432 1.6875 13.4354 2.18147 14.3145 3.06055C15.1935 3.93962 15.6875 5.1318 15.6875 6.375V9.75C15.6875 10.0607 15.4357 10.3125 15.125 10.3125C14.8143 10.3125 14.5625 10.0607 14.5625 9.75V6.375C14.5625 5.43017 14.1876 4.52357 13.5195 3.85547C12.896 3.23193 12.0646 2.86377 11.1885 2.81738L11.0469 2.81445L11.1406 2.89551C12.0508 3.7176 12.6373 4.89157 12.6846 6.20312L12.6875 6.375C12.6875 8.13541 11.2604 9.5625 9.5 9.5625C7.73959 9.5625 6.3125 8.13541 6.3125 6.375C6.3125 4.99437 6.90957 3.75335 7.85938 2.89551L7.95215 2.81348L7.83691 2.81641C5.99916 2.89922 4.52422 4.37416 4.44141 6.21191L4.4375 6.375V9.75C4.4375 10.0607 4.18566 10.3125 3.875 10.3125C3.56434 10.3125 3.3125 10.0607 3.3125 9.75V6.375C3.3125 3.78617 5.41117 1.6875 8 1.6875C8.43142 1.6875 8.84934 1.74537 9.24609 1.85449L9.5 1.93262L9.51855 1.92676C9.93247 1.78897 10.3719 1.70687 10.8281 1.69043L11 1.6875ZM9.47266 3.15527C8.2693 3.72712 7.4375 4.95404 7.4375 6.375C7.4375 7.51409 8.36091 8.4375 9.5 8.4375C10.6391 8.4375 11.5625 7.51409 11.5625 6.375C11.5625 4.95404 10.7307 3.72712 9.52734 3.15527L9.49902 3.14355L9.47266 3.15527Z" fill="currentColor"/>
</g>
</g>
</svg>
