<svg width="24" height="24" viewBox="0 0 24 24" fill="none" xmlns="http://www.w3.org/2000/svg">
<path d="M8.78907 8.49475C11.3461 6.17479 16.2427 7.39477 19.918 11.0699C22.3611 13.513 22.361 17.4745 19.918 19.9176C17.4748 22.3607 13.514 22.3604 11.0654 19.9117L10.8447 19.6871C7.26783 15.9582 6.18323 11.0938 8.63868 8.63831L8.78907 8.49475ZM18.8574 12.1315C15.6194 8.89348 11.4884 7.90986 9.69922 9.69885C7.95398 11.4441 8.84384 15.4343 11.9219 18.6432L12.1309 18.8571C13.9882 20.7144 17.0001 20.7144 18.8574 18.8571C20.7145 16.9998 20.7144 13.9888 18.8574 12.1315Z" fill="white"/>
<path d="M6.795 2.255C8.11784 2.255 9.20022 3.28448 9.2847 4.58596L9.29 4.75001V6.109L11.0003 7.81967C11.2666 8.08594 11.2908 8.5026 11.073 8.79622L11.0003 8.88033C10.7341 9.1466 10.3174 9.17081 10.0238 8.95295L9.93967 8.88033L8.00968 6.95034C7.89715 6.83781 7.82408 6.69322 7.79935 6.53804L7.79 6.42V4.75001C7.79 4.20048 7.34453 3.755 6.795 3.755C6.28473 3.755 5.86418 4.13911 5.8067 4.63397L5.8 4.75V5.05C5.8 5.4297 5.51785 5.7435 5.15178 5.79316L5.05 5.8H4.75001C4.20048 5.8 3.755 6.24548 3.755 6.795C3.755 7.30528 4.13911 7.72583 4.63397 7.78331L4.75001 7.79H6.42C6.57913 7.79 6.73305 7.84058 6.86027 7.93282L6.95034 8.00967L8.88033 9.93967C9.17323 10.2326 9.17323 10.7074 8.88033 11.0003C8.61407 11.2666 8.1974 11.2908 7.90379 11.073L7.81967 11.0003L6.108 9.289L4.75001 9.29C3.42717 9.29 2.34479 8.26053 2.26031 6.95905L2.255 6.795C2.255 5.58241 3.12005 4.57185 4.26669 4.34678L4.335 4.335L4.34678 4.26669C4.56162 3.17217 5.49216 2.33423 6.63096 2.26031L6.795 2.255Z" fill="white"/>
</svg>
