<svg width="24" height="24" viewBox="0 0 24 24" fill="none" xmlns="http://www.w3.org/2000/svg">
<path d="M12 1.25C17.6609 1.25 22.25 5.83909 22.25 11.5C22.25 17.1609 17.6609 21.75 12 21.75C6.33909 21.75 1.75 17.1609 1.75 11.5C1.75 5.83908 6.33908 1.25 12 1.25ZM12 2.75C7.16751 2.75 3.25 6.66751 3.25 11.5C3.25 16.3325 7.16751 20.25 12 20.25C16.8325 20.25 20.75 16.3325 20.75 11.5C20.75 6.66751 16.8325 2.75 12 2.75Z" fill="#EE00AE"/>
<path d="M5.46967 8.46967C5.76256 8.17677 6.23744 8.17677 6.53033 8.46967C6.79659 8.73593 6.8208 9.1526 6.60295 9.44621L6.53033 9.53033L6.03033 10.0303C5.73744 10.3232 5.26256 10.3232 4.96967 10.0303C4.7034 9.76406 4.6792 9.3474 4.89705 9.05378L4.96967 8.96967L5.46967 8.46967Z" fill="#EE00AE"/>
<path d="M7.46967 5.46967C7.73594 5.2034 8.1526 5.1792 8.44621 5.39705L8.53033 5.46967L9.03033 5.96967C9.32322 6.26256 9.32322 6.73744 9.03033 7.03033C8.76406 7.2966 8.3474 7.3208 8.05379 7.10295L7.96967 7.03033L7.46967 6.53033C7.17678 6.23744 7.17678 5.76256 7.46967 5.46967Z" fill="#EE00AE"/>
<path d="M10.2197 17.2197C10.4859 16.9534 10.9026 16.9292 11.1962 17.1471L11.2803 17.2197L11.7803 17.7197C12.0732 18.0126 12.0732 18.4874 11.7803 18.7803C11.5141 19.0466 11.0974 19.0708 10.8038 18.8529L10.7197 18.7803L10.2197 18.2803C9.92678 17.9874 9.92678 17.5126 10.2197 17.2197Z" fill="#EE00AE"/>
<path d="M15.2197 16.2197C15.4859 15.9534 15.9026 15.9292 16.1962 16.1471L16.2803 16.2197L16.7803 16.7197C17.0732 17.0126 17.0732 17.4874 16.7803 17.7803C16.5141 18.0466 16.0974 18.0708 15.8038 17.8529L15.7197 17.7803L15.2197 17.2803C14.9268 16.9874 14.9268 16.5126 15.2197 16.2197Z" fill="#EE00AE"/>
<path d="M8.21967 10.4697C8.48594 10.2034 8.9026 10.1792 9.19621 10.3971L9.28033 10.4697L9.78033 10.9697C10.0732 11.2626 10.0732 11.7374 9.78033 12.0303C9.51406 12.2966 9.0974 12.3208 8.80379 12.1029L8.71967 12.0303L8.21967 11.5303C7.92678 11.2374 7.92678 10.7626 8.21967 10.4697Z" fill="#EE00AE"/>
<path d="M11.2197 14.4697C11.4859 14.2034 11.9026 14.1792 12.1962 14.3971L12.2803 14.4697L12.7803 14.9697C13.0732 15.2626 13.0732 15.7374 12.7803 16.0303C12.5141 16.2966 12.0974 16.3208 11.8038 16.1029L11.7197 16.0303L11.2197 15.5303C10.9268 15.2374 10.9268 14.7626 11.2197 14.4697Z" fill="#EE00AE"/>
<path d="M11.4697 4.21967C11.7626 3.92678 12.2374 3.92678 12.5303 4.21967C12.7966 4.48594 12.8208 4.9026 12.6029 5.19621L12.5303 5.28033L12.0303 5.78033C11.7374 6.07322 11.2626 6.07322 10.9697 5.78033C10.7034 5.51406 10.6792 5.0974 10.8971 4.80379L10.9697 4.71967L11.4697 4.21967Z" fill="#EE00AE"/>
<path d="M12.2197 9.21967C12.5126 8.92678 12.9874 8.92678 13.2803 9.21967C13.5466 9.48594 13.5708 9.9026 13.3529 10.1962L13.2803 10.2803L12.7803 10.7803C12.4874 11.0732 12.0126 11.0732 11.7197 10.7803C11.4534 10.5141 11.4292 10.0974 11.6471 9.80379L11.7197 9.71967L12.2197 9.21967Z" fill="#EE00AE"/>
<path d="M15.2197 13.2197C15.5126 12.9268 15.9874 12.9268 16.2803 13.2197C16.5466 13.4859 16.5708 13.9026 16.3529 14.1962L16.2803 14.2803L15.7803 14.7803C15.4874 15.0732 15.0126 15.0732 14.7197 14.7803C14.4534 14.5141 14.4292 14.0974 14.6471 13.8038L14.7197 13.7197L15.2197 13.2197Z" fill="#EE00AE"/>
<path d="M14.7197 5.21967C14.9859 4.9534 15.4026 4.9292 15.6962 5.14705L15.7803 5.21967L16.2803 5.71967C16.5732 6.01256 16.5732 6.48744 16.2803 6.78033C16.0141 7.0466 15.5974 7.0708 15.3038 6.85295L15.2197 6.78033L14.7197 6.28033C14.4268 5.98744 14.4268 5.51256 14.7197 5.21967Z" fill="#EE00AE"/>
<path d="M14.2197 10.2197C14.4859 9.9534 14.9026 9.9292 15.1962 10.1471L15.2803 10.2197L15.7803 10.7197C16.0732 11.0126 16.0732 11.4874 15.7803 11.7803C15.5141 12.0466 15.0974 12.0708 14.8038 11.8529L14.7197 11.7803L14.2197 11.2803C13.9268 10.9874 13.9268 10.5126 14.2197 10.2197Z" fill="#EE00AE"/>
<path d="M17.7197 8.21967C18.0126 7.92678 18.4874 7.92678 18.7803 8.21967C19.0466 8.48594 19.0708 8.9026 18.8529 9.19621L18.7803 9.28033L18.2803 9.78033C17.9874 10.0732 17.5126 10.0732 17.2197 9.78033C16.9534 9.51406 16.9292 9.0974 17.1471 8.80379L17.2197 8.71967L17.7197 8.21967Z" fill="#EE00AE"/>
<path d="M7.71967 14.2197C8.01256 13.9268 8.48744 13.9268 8.78033 14.2197C9.0466 14.4859 9.0708 14.9026 8.85295 15.1962L8.78033 15.2803L8.28033 15.7803C7.98744 16.0732 7.51256 16.0732 7.21967 15.7803C6.9534 15.5141 6.9292 15.0974 7.14705 14.8038L7.21967 14.7197L7.71967 14.2197Z" fill="#EE00AE"/>
<path d="M20.8783 12.8181C21.2185 12.5819 21.6859 12.6663 21.9221 13.0065C22.1583 13.3468 22.074 13.8141 21.7337 14.0503C20.5162 14.8955 18.9018 14.8955 17.6843 14.0503C17.344 13.8141 17.2597 13.3468 17.4959 13.0065C17.7321 12.6663 18.1994 12.5819 18.5397 12.8181C19.2428 13.3062 20.1752 13.3062 20.8783 12.8181Z" fill="#EE00AE"/>
<path d="M5.4603 12.8181C5.80056 12.5819 6.26788 12.6663 6.50409 13.0065C6.7403 13.3468 6.65596 13.8141 6.3157 14.0503C5.09821 14.8955 3.48379 14.8955 2.2663 14.0503C1.92604 13.8141 1.84169 13.3468 2.07791 13.0065C2.31412 12.6663 2.78144 12.5819 3.1217 12.8181C3.82482 13.3062 4.75718 13.3062 5.4603 12.8181Z" fill="#EE00AE"/>
</svg>
