<svg width="24" height="24" viewBox="0 0 24 24" fill="none" xmlns="http://www.w3.org/2000/svg">
<path d="M20.6957 12.0147C21.1099 12.0147 21.4457 12.3505 21.4457 12.7647C21.4457 13.1444 21.1635 13.4582 20.7974 13.5079L20.6957 13.5147H3C2.58579 13.5147 2.25 13.1789 2.25 12.7647C2.25 12.385 2.53216 12.0712 2.89823 12.0216L3 12.0147H20.6957Z" fill="white"/>
<path d="M21 16.25C21.4142 16.25 21.75 16.5858 21.75 17C21.75 17.3797 21.4678 17.6935 21.1018 17.7431L21 17.75H3C2.58579 17.75 2.25 17.4142 2.25 17C2.25 16.6203 2.53216 16.3065 2.89823 16.2568L3 16.25H21Z" fill="white"/>
<path d="M13.373 3.7863C14.976 3.78643 15.9336 4.97855 16 6.68669L16.0049 6.88005C15.9996 8.95074 14.3721 10.6386 12.3271 10.7424L12.1279 10.7482C9.99027 10.7482 8.25541 9.01765 8.25 6.8781C8.25004 5.13067 9.14216 3.87848 10.6953 3.79118L10.8711 3.7863L10.9805 3.79509L11.2783 3.82634C11.5054 3.8545 11.7315 3.89066 11.9561 3.93474L12.1211 3.96989L12.2881 3.93571C12.5123 3.89193 12.7382 3.85565 12.9648 3.82731L13.3047 3.79118L13.373 3.7863ZM13.0547 5.32829C12.7983 5.36332 12.5432 5.40966 12.291 5.46794C12.1794 5.49373 12.0627 5.49395 11.9512 5.46794C11.6996 5.4093 11.4452 5.36209 11.1895 5.32731L10.835 5.28728L10.7461 5.29216C10.142 5.34731 9.79494 5.81425 9.7539 6.6945L9.75 6.87614C9.75331 8.18685 10.8172 9.24821 12.1279 9.24821C13.3837 9.24799 14.4123 8.27367 14.499 7.03923L14.5039 6.89567V6.8781C14.5039 5.88186 14.1469 5.35126 13.498 5.29216L13.4092 5.28728L13.0547 5.32829Z" fill="white"/>
<path d="M13.726 1.25C14.1402 1.24993 14.4761 1.58566 14.4761 1.99987C14.4762 2.37956 14.1941 2.69341 13.828 2.74313L13.7263 2.75C13.2924 2.75008 12.9344 3.0747 12.8819 3.49418L12.8752 3.6009V4.73527C12.8752 5.14948 12.5394 5.48527 12.1252 5.48527C11.7455 5.48527 11.4317 5.20311 11.3821 4.83704L11.3752 4.73527V3.60076C11.3755 2.30256 12.4278 1.25023 13.726 1.25Z" fill="white"/>
<path d="M9.26846 4.7653C9.68264 4.76077 10.0221 5.09286 10.0266 5.50704C10.0312 5.92123 9.69907 6.26068 9.28488 6.26521C6.29027 6.29801 3.8664 8.67842 3.75407 11.646L3.75 11.8641V18.8823C3.75 19.5932 4.29241 20.1775 4.98596 20.2437L5.11768 20.25H18.8823C19.5932 20.25 20.1775 19.7076 20.2437 19.014L20.25 18.8823V13.4661C20.25 13.0735 20.0815 12.7024 19.7916 12.4444L19.6773 12.3532L14.5729 8.70715C14.2358 8.4664 14.1577 7.99798 14.3985 7.66093C14.6174 7.35451 15.0244 7.26214 15.3498 7.42876L15.4447 7.48656L20.5491 11.1326C21.2489 11.6324 21.6845 12.4175 21.7432 13.2686L21.75 13.4661V18.8823C21.75 20.4095 20.5562 21.6579 19.0508 21.7451L18.8823 21.75H5.11768C3.59047 21.75 2.34209 20.5562 2.25487 19.0508L2.25 18.8823L2.25 11.8645C2.24811 7.97436 5.37855 4.80791 9.26846 4.7653Z" fill="white"/>
</svg>
