<svg width="24" height="24" viewBox="0 0 24 24" fill="none" xmlns="http://www.w3.org/2000/svg">
<path d="M9.78865 4.61023C13.2888 2.649 17.6071 2.81559 20.9508 5.06531C22.0714 5.81705 22.7452 7.07651 22.7496 8.44715L22.7437 8.68152C22.6796 9.79967 22.148 10.8406 21.2711 11.5546C15.5569 16.0985 7.39154 15.8311 1.97908 10.9159C1.50858 10.4761 1.24396 9.85917 1.25057 9.18836L1.25936 9.01258C1.35377 7.96868 2.14218 7.11541 3.18123 6.94226L3.83846 6.83582C5.83366 6.48354 7.75413 5.78517 9.51131 4.77136L9.50057 4.77625L9.78865 4.61023ZM20.1138 6.31043C17.1601 4.32315 13.3229 4.22698 10.273 6.06336L9.81404 6.32019C7.8674 7.37419 5.75037 8.07872 3.57088 8.39832L3.42732 8.42176C3.06294 8.48264 2.7862 8.78261 2.75545 9.11414L2.74959 9.2284C2.74752 9.45238 2.83986 9.66767 2.99568 9.81336C7.85593 14.2268 15.1988 14.4671 20.3306 10.3866C20.8739 9.94427 21.2056 9.29377 21.2447 8.62L21.2506 8.43054C21.2476 7.57937 20.8216 6.78515 20.1138 6.31043Z" fill="white"/>
<path d="M14.9036 7.62092C15.0574 7.23633 15.4939 7.04926 15.8785 7.20309C16.231 7.3441 16.4176 7.72262 16.3278 8.08095L16.2963 8.17799L15.0964 11.178C14.9426 11.5626 14.5061 11.7496 14.1215 11.5958C13.7689 11.4548 13.5824 11.0763 13.6722 10.7179L13.7037 10.6209L14.9036 7.62092Z" fill="white"/>
<path d="M10.9036 7.62092C11.0574 7.23633 11.4939 7.04926 11.8785 7.20309C12.2311 7.3441 12.4176 7.72262 12.3278 8.08095L12.2963 8.17799L11.0964 11.178C10.9426 11.5626 10.5061 11.7496 10.1215 11.5958C9.76896 11.4548 9.58239 11.0763 9.67223 10.7179L9.70367 10.6209L10.9036 7.62092Z" fill="white"/>
<path d="M22 7.67827C22.3797 7.67827 22.6935 7.96043 22.7432 8.3265L22.75 8.42827L22.75 14.0327C22.7428 15.5682 22.0019 17.0076 20.7586 17.9043C15.5359 21.6985 8.46409 21.6985 3.24345 17.9058C2.06366 17.0549 1.33663 15.7182 1.25721 14.2713L1.25 14.0292V9.22181C1.25 8.8076 1.58579 8.47181 2 8.47181C2.3797 8.47181 2.69349 8.75397 2.74315 9.12004L2.75 9.22181L2.74999 14.0257C2.75497 15.0816 3.26448 16.0715 4.123 16.6907C8.82001 20.103 15.18 20.103 19.8791 16.6892C20.6784 16.1127 21.1756 15.2119 21.2423 14.2388L21.25 14.0292V8.42827C21.25 8.01406 21.5858 7.67827 22 7.67827Z" fill="white"/>
</svg>
