<svg width="24" height="24" viewBox="0 0 24 24" fill="none" xmlns="http://www.w3.org/2000/svg">
<path d="M11.9999 3.25C12.4141 3.24994 12.7499 3.58567 12.75 3.99989C12.7501 4.4141 12.4143 4.74994 12.0001 4.75C7.99605 4.75061 4.75061 7.99704 4.75122 12.0011C4.75183 16.0052 7.99826 19.2506 12.0023 19.25C16.0064 19.2494 19.2518 16.003 19.2512 11.9989C19.2508 9.34359 17.7989 6.90095 15.4665 5.63178C15.1027 5.4338 14.9682 4.97835 15.1662 4.61452C15.3642 4.25069 15.8196 4.11624 16.1835 4.31422C18.9984 5.84597 20.7507 8.79399 20.7512 11.9987C20.752 16.8312 16.835 20.7493 12.0026 20.75C7.17006 20.7507 3.25196 16.8338 3.25122 12.0013C3.25049 7.16884 7.16739 3.25074 11.9999 3.25Z" fill="white"/>
<path d="M19.361 3.762C19.7752 3.762 20.111 4.09779 20.111 4.512C20.111 4.8917 19.8288 5.20549 19.4628 5.25515L19.361 5.262L16.5742 5.261L16.575 8.048C16.575 8.4277 16.2928 8.74149 15.9268 8.79115L15.825 8.798C15.4453 8.798 15.1315 8.51585 15.0818 8.14977L15.075 8.048V4.512C15.075 4.1323 15.3572 3.81851 15.7232 3.76885L15.825 3.762H19.361Z" fill="white"/>
</svg>
