<svg width="24" height="24" viewBox="0 0 24 24" fill="none" xmlns="http://www.w3.org/2000/svg">
<path d="M11.0586 3.25C15.3713 3.25 18.8679 6.74599 18.8682 11.0586C18.8682 15.3714 15.3714 18.8682 11.0586 18.8682C6.74599 18.8679 3.25 15.3713 3.25 11.0586C3.25022 6.74612 6.74612 3.25022 11.0586 3.25ZM11.0586 4.75C7.57455 4.75022 4.75022 7.57455 4.75 11.0586C4.75 14.5428 7.57442 17.3679 11.0586 17.3682C14.543 17.3682 17.3682 14.543 17.3682 11.0586C17.3679 7.57442 14.5428 4.75 11.0586 4.75Z" fill="white"/>
<path d="M15.5197 15.5197C15.7859 15.2534 16.2026 15.2292 16.4962 15.4471L16.5803 15.5197L20.5303 19.4697C20.8232 19.7626 20.8232 20.2374 20.5303 20.5303C20.2641 20.7966 19.8474 20.8208 19.5538 20.6029L19.4697 20.5303L15.5197 16.5803C15.2268 16.2874 15.2268 15.8126 15.5197 15.5197Z" fill="white"/>
</svg>
