<svg width="24" height="24" viewBox="0 0 24 24" fill="none" xmlns="http://www.w3.org/2000/svg">
<path d="M15 14.44C15.4142 14.44 15.75 14.7758 15.75 15.19C15.75 15.5697 15.4678 15.8835 15.1018 15.9332L15 15.94H9C8.58578 15.94 8.25 15.6042 8.25 15.19C8.25 14.8103 8.53215 14.4965 8.89823 14.4468L9 14.44H15Z" fill="white"/>
<path d="M11.1873 3.29774C15.2393 2.82215 18.7498 5.96687 18.7498 9.99989C18.7498 12.2174 17.669 14.2533 15.8895 15.5106C15.7959 15.5768 15.7498 15.6592 15.7498 15.7333V18.4999C15.7498 20.2951 14.295 21.7499 12.4998 21.7499H11.4998C9.70468 21.7498 8.24981 20.295 8.24981 18.4999V15.7372C8.24981 15.6599 8.20284 15.5757 8.10821 15.5087C6.02737 14.0383 4.92809 11.5326 5.3338 8.92274C5.79129 5.9851 8.22984 3.64425 11.1873 3.29774ZM17.2498 9.99989C17.2498 6.86217 14.5202 4.4173 11.3621 4.78798C9.07263 5.05621 7.16987 6.88243 6.81622 9.15321C6.49914 11.1927 7.35244 13.1379 8.97442 14.2841C9.45273 14.6226 9.74981 15.1537 9.74981 15.7372V18.4999C9.74981 19.4666 10.5331 20.2498 11.4998 20.2499H12.4998C13.4666 20.2499 14.2498 19.4667 14.2498 18.4999V15.7333C14.2498 15.152 14.5469 14.6223 15.0242 14.285C16.4103 13.3056 17.2498 11.7244 17.2498 9.99989Z" fill="white"/>
<path d="M20.6597 3.27967C20.9526 2.98677 21.4274 2.98677 21.7203 3.27967C21.9866 3.54593 22.0108 3.9626 21.7929 4.25621L21.7203 4.34033L20.5303 5.53033C20.2374 5.82322 19.7626 5.82322 19.4697 5.53033C19.2034 5.26406 19.1792 4.8474 19.397 4.55379L19.4697 4.46967L20.6597 3.27967Z" fill="white"/>
<path d="M3.46967 14.4697C3.76256 14.1768 4.23743 14.1768 4.53033 14.4697C4.79659 14.7359 4.8208 15.1526 4.60295 15.4462L4.53033 15.5303L3.34033 16.7203C3.04743 17.0132 2.57256 17.0132 2.27967 16.7203C2.0134 16.4541 1.98919 16.0374 2.20705 15.7438L2.27967 15.6597L3.46967 14.4697Z" fill="white"/>
<path d="M3.27967 2.27967C3.54593 2.0134 3.9626 1.98919 4.25621 2.20705L4.34033 2.27967L5.53033 3.46967C5.82322 3.76256 5.82322 4.23743 5.53033 4.53033C5.26406 4.79659 4.8474 4.8208 4.55379 4.60295L4.46967 4.53033L3.27967 3.34033C2.98677 3.04743 2.98677 2.57256 3.27967 2.27967Z" fill="white"/>
<path d="M19.4697 14.4697C19.7359 14.2034 20.1526 14.1792 20.4462 14.397L20.5303 14.4697L21.7203 15.6597C22.0132 15.9526 22.0132 16.4274 21.7203 16.7203C21.4541 16.9866 21.0374 17.0108 20.7438 16.7929L20.6597 16.7203L19.4697 15.5303C19.1768 15.2374 19.1768 14.7626 19.4697 14.4697Z" fill="white"/>
<path d="M22.69 9.25C23.1042 9.25 23.44 9.58578 23.44 10C23.44 10.3797 23.1578 10.6935 22.7918 10.7432L22.69 10.75H21C20.5858 10.75 20.25 10.4142 20.25 10C20.25 9.6203 20.5322 9.30651 20.8982 9.25684L21 9.25H22.69Z" fill="white"/>
<path d="M3 9.25C3.41421 9.25 3.75 9.58578 3.75 10C3.75 10.3797 3.46784 10.6935 3.10177 10.7432L3 10.75H1.31C0.895784 10.75 0.559998 10.4142 0.559998 10C0.559998 9.6203 0.842151 9.30651 1.20823 9.25684L1.31 9.25H3Z" fill="white"/>
<path d="M14.87 17.25C15.2842 17.25 15.62 17.5858 15.62 18C15.62 18.3797 15.3378 18.6935 14.9718 18.7432L14.87 18.75H9C8.58578 18.75 8.25 18.4142 8.25 18C8.25 17.6203 8.53215 17.3065 8.89823 17.2568L9 17.25H14.87Z" fill="white"/>
</svg>
