<svg width="24" height="24" viewBox="0 0 24 24" fill="none" xmlns="http://www.w3.org/2000/svg">
<path d="M8.96186 7.37137C10.6614 4.8358 14.0952 4.15813 16.6308 5.8577C16.8296 5.991 17.0198 6.13755 17.2177 6.3118L17.4609 6.54032C19.6193 8.69858 19.6199 12.1982 17.4619 14.3567C17.2077 14.6109 16.9294 14.8402 16.6308 15.0403L6.66303 21.72C5.41096 22.5582 3.74084 22.3958 2.67475 21.3313C1.60677 20.2655 1.44258 18.5923 2.28217 17.3382L8.96186 7.37137ZM15.6142 6.98954C13.7875 5.89901 11.4063 6.41865 10.208 8.20633L3.52827 18.1731C3.08759 18.8314 3.17449 19.7091 3.7353 20.2688C4.29502 20.8277 5.17106 20.9136 5.82807 20.4739L15.7958 13.7942C16.0133 13.6485 16.2162 13.4813 16.4013 13.2962C17.9736 11.7235 17.973 9.17401 16.4179 7.61844L16.2099 7.42215C16.0788 7.30708 15.9398 7.20094 15.7949 7.10379L15.6142 6.98954Z" fill="white"/>
<path d="M16.6085 1.75C17.3944 1.75055 18.0831 2.16613 18.4674 2.78942L18.494 2.836C19.1727 2.65828 19.9136 2.80869 20.471 3.28572L20.5971 3.40245C21.1217 3.92661 21.3237 4.65141 21.203 5.33008L21.164 5.505L21.2106 5.53261C21.7923 5.89131 22.1931 6.51529 22.2444 7.23611L22.25 7.392C22.25 8.54521 21.3558 9.48958 20.2229 9.56952L20.067 9.575H18.053C17.6388 9.575 17.303 9.23921 17.303 8.825C17.303 8.4453 17.5852 8.13151 17.9512 8.08184L18.053 8.075H20.067C20.4442 8.075 20.75 7.76921 20.75 7.39252C20.7498 7.04944 20.497 6.76546 20.1675 6.71647L20.0665 6.709C19.4336 6.70855 19.1004 5.98345 19.4689 5.50563L19.5373 5.42804L19.6092 5.34348C19.7795 5.1065 19.7794 4.78485 19.6085 4.54773L19.536 4.4627L19.4515 4.39083C19.2145 4.22047 18.8929 4.22061 18.6561 4.39116L18.5716 4.46311C18.1242 4.91083 17.3756 4.63453 17.2976 4.03616L17.291 3.93352C17.2907 3.55613 16.9849 3.25026 16.608 3.25C16.2651 3.25 15.9812 3.50272 15.9324 3.83207L15.925 3.933V5.947C15.925 6.36121 15.5892 6.697 15.175 6.697C14.7953 6.697 14.4815 6.41485 14.4318 6.04877L14.425 5.947V3.933C14.425 2.72736 15.4024 1.75 16.6085 1.75Z" fill="white"/>
<path d="M13.7397 11.9997C14.0059 11.7334 14.4226 11.7092 14.7162 11.9271L14.8003 11.9997L16.7103 13.9097C17.0032 14.2026 17.0032 14.6774 16.7103 14.9703C16.4441 15.2366 16.0274 15.2608 15.7338 15.0429L15.6497 14.9703L13.7397 13.0603C13.4468 12.7674 13.4468 12.2926 13.7397 11.9997Z" fill="white"/>
<path d="M6.78967 10.6497C7.05594 10.3834 7.4726 10.3592 7.76621 10.5771L7.85033 10.6497L9.90033 12.6997C10.1932 12.9926 10.1932 13.4674 9.90033 13.7603C9.63407 14.0266 9.2174 14.0508 8.92379 13.8329L8.83967 13.7603L6.78967 11.7103C6.49678 11.4174 6.49678 10.9426 6.78967 10.6497Z" fill="white"/>
<path d="M6.73967 16.1997C7.00594 15.9334 7.4226 15.9092 7.71622 16.1271L7.80033 16.1997L10.0003 18.3997C10.2932 18.6926 10.2932 19.1674 10.0003 19.4603C9.73407 19.7266 9.3174 19.7508 9.02379 19.5329L8.93967 19.4603L6.73967 17.2603C6.44678 16.9674 6.44678 16.4926 6.73967 16.1997Z" fill="white"/>
</svg>
